<mxfile host="app.diagrams.net" agent="Mozilla/5.0 (Windows NT 10.0; Win64; x64) AppleWebKit/537.36 (KHTML, like Gecko) Chrome/131.0.0.0 Safari/537.36" version="26.0.2">
  <diagram name="Trang-1" id="LgbN63p3P70RVY04O_IV">
    <mxGraphModel dx="987" dy="529" grid="1" gridSize="10" guides="1" tooltips="1" connect="1" arrows="1" fold="1" page="1" pageScale="1" pageWidth="827" pageHeight="1169" math="0" shadow="0">
      <root>
        <mxCell id="0" />
        <mxCell id="1" parent="0" />
        <mxCell id="TTsagFuzITH8P4V_9XAO-5" style="rounded=0;orthogonalLoop=1;jettySize=auto;html=1;exitX=1;exitY=0;exitDx=0;exitDy=0;entryX=0;entryY=0.5;entryDx=0;entryDy=0;" edge="1" parent="1" source="TTsagFuzITH8P4V_9XAO-1" target="TTsagFuzITH8P4V_9XAO-2">
          <mxGeometry relative="1" as="geometry" />
        </mxCell>
        <mxCell id="TTsagFuzITH8P4V_9XAO-6" style="rounded=0;orthogonalLoop=1;jettySize=auto;html=1;exitX=1;exitY=1;exitDx=0;exitDy=0;entryX=0;entryY=0.5;entryDx=0;entryDy=0;" edge="1" parent="1" source="TTsagFuzITH8P4V_9XAO-16" target="TTsagFuzITH8P4V_9XAO-3">
          <mxGeometry relative="1" as="geometry" />
        </mxCell>
        <mxCell id="TTsagFuzITH8P4V_9XAO-1" value="&lt;div&gt;&lt;span&gt;Câu hỏi 7: Phân tích các chức năng cơ bản của gia đình&amp;nbsp;&lt;/span&gt;&lt;/div&gt;&lt;div&gt;&lt;span&gt;(Câu này có thể tự chém được)&lt;/span&gt;&lt;/div&gt;" style="ellipse;whiteSpace=wrap;html=1;fontSize=18;" vertex="1" parent="1">
          <mxGeometry x="20" y="290" width="370" height="200" as="geometry" />
        </mxCell>
        <mxCell id="TTsagFuzITH8P4V_9XAO-9" style="edgeStyle=none;rounded=0;orthogonalLoop=1;jettySize=auto;html=1;entryX=0;entryY=0.5;entryDx=0;entryDy=0;" edge="1" parent="1" source="TTsagFuzITH8P4V_9XAO-2" target="TTsagFuzITH8P4V_9XAO-4">
          <mxGeometry relative="1" as="geometry" />
        </mxCell>
        <mxCell id="TTsagFuzITH8P4V_9XAO-10" style="edgeStyle=none;rounded=0;orthogonalLoop=1;jettySize=auto;html=1;entryX=0;entryY=0.5;entryDx=0;entryDy=0;" edge="1" parent="1" source="TTsagFuzITH8P4V_9XAO-2" target="TTsagFuzITH8P4V_9XAO-7">
          <mxGeometry relative="1" as="geometry" />
        </mxCell>
        <mxCell id="TTsagFuzITH8P4V_9XAO-11" style="edgeStyle=none;rounded=0;orthogonalLoop=1;jettySize=auto;html=1;entryX=0;entryY=0.5;entryDx=0;entryDy=0;" edge="1" parent="1" source="TTsagFuzITH8P4V_9XAO-2" target="TTsagFuzITH8P4V_9XAO-8">
          <mxGeometry relative="1" as="geometry" />
        </mxCell>
        <mxCell id="TTsagFuzITH8P4V_9XAO-2" value="&lt;font&gt;Định nghĩa&lt;/font&gt;" style="rounded=1;whiteSpace=wrap;html=1;fontSize=18;" vertex="1" parent="1">
          <mxGeometry x="440" y="200" width="140" height="60" as="geometry" />
        </mxCell>
        <mxCell id="TTsagFuzITH8P4V_9XAO-3" value="&lt;font&gt;Các chức năng&lt;/font&gt;" style="rounded=1;whiteSpace=wrap;html=1;fontSize=18;" vertex="1" parent="1">
          <mxGeometry x="300" y="835" width="140" height="60" as="geometry" />
        </mxCell>
        <mxCell id="TTsagFuzITH8P4V_9XAO-4" value="&lt;font&gt;1 hình thức cộng đồng XH đặc biệt&lt;/font&gt;" style="text;html=1;align=center;verticalAlign=middle;whiteSpace=wrap;rounded=0;fillColor=#dae8fc;strokeColor=#6c8ebf;fontSize=18;" vertex="1" parent="1">
          <mxGeometry x="640" y="70" width="290" height="90" as="geometry" />
        </mxCell>
        <mxCell id="TTsagFuzITH8P4V_9XAO-7" value="&lt;font&gt;hình thành, củng cố, duy trì với nhau dựa trên quan hệ hôn nhân, huyết thống, nuôi dưỡng&lt;/font&gt;" style="text;html=1;align=center;verticalAlign=middle;whiteSpace=wrap;rounded=0;fillColor=#dae8fc;strokeColor=#6c8ebf;fontSize=18;" vertex="1" parent="1">
          <mxGeometry x="640" y="185" width="290" height="90" as="geometry" />
        </mxCell>
        <mxCell id="TTsagFuzITH8P4V_9XAO-8" value="vs những quy định về quyền và nghĩa vụ vs các thành viên" style="text;html=1;align=center;verticalAlign=middle;whiteSpace=wrap;rounded=0;fillColor=#dae8fc;strokeColor=#6c8ebf;fontSize=18;" vertex="1" parent="1">
          <mxGeometry x="640" y="310" width="290" height="90" as="geometry" />
        </mxCell>
        <mxCell id="TTsagFuzITH8P4V_9XAO-17" value="" style="rounded=0;orthogonalLoop=1;jettySize=auto;html=1;exitX=1;exitY=1;exitDx=0;exitDy=0;entryX=0;entryY=0.5;entryDx=0;entryDy=0;" edge="1" parent="1" source="TTsagFuzITH8P4V_9XAO-1" target="TTsagFuzITH8P4V_9XAO-16">
          <mxGeometry relative="1" as="geometry">
            <mxPoint x="336" y="461" as="sourcePoint" />
            <mxPoint x="440" y="690" as="targetPoint" />
          </mxGeometry>
        </mxCell>
        <mxCell id="TTsagFuzITH8P4V_9XAO-16" value="&lt;font style=&quot;font-size: 18px;&quot;&gt;Các nhà XH học nghiên cứu gđ trên cấp độ vi mô, vĩ mô đều khẳng định chức năng của gđ.&amp;nbsp; Có 5 chức năng của gđ:&lt;/font&gt;" style="rounded=0;align=center;verticalAlign=middle;whiteSpace=wrap;html=1;" vertex="1" parent="1">
          <mxGeometry x="230" y="510" width="260" height="110" as="geometry" />
        </mxCell>
        <mxCell id="TTsagFuzITH8P4V_9XAO-18" value="Chức năng sản xuất con người" style="text;html=1;align=center;verticalAlign=middle;whiteSpace=wrap;rounded=0;fillColor=#dae8fc;strokeColor=#6c8ebf;fontSize=18;" vertex="1" parent="1">
          <mxGeometry x="640" y="550" width="290" height="90" as="geometry" />
        </mxCell>
        <mxCell id="TTsagFuzITH8P4V_9XAO-19" value="Chức năng giáo dục, nuôi dưỡng" style="text;html=1;align=center;verticalAlign=middle;whiteSpace=wrap;rounded=0;fillColor=#dae8fc;strokeColor=#6c8ebf;fontSize=18;" vertex="1" parent="1">
          <mxGeometry x="640" y="680" width="290" height="90" as="geometry" />
        </mxCell>
        <mxCell id="TTsagFuzITH8P4V_9XAO-20" value="Chức năng VH, CTRi" style="text;html=1;align=center;verticalAlign=middle;whiteSpace=wrap;rounded=0;fillColor=#dae8fc;strokeColor=#6c8ebf;fontSize=18;" vertex="1" parent="1">
          <mxGeometry x="640" y="1110" width="290" height="90" as="geometry" />
        </mxCell>
        <mxCell id="TTsagFuzITH8P4V_9XAO-21" value="Chức năng KT" style="text;html=1;align=center;verticalAlign=middle;whiteSpace=wrap;rounded=0;fillColor=#dae8fc;strokeColor=#6c8ebf;fontSize=18;" vertex="1" parent="1">
          <mxGeometry x="640" y="820" width="290" height="90" as="geometry" />
        </mxCell>
        <mxCell id="TTsagFuzITH8P4V_9XAO-22" value="Chức năng thoả mãn nhu cầu tâm lý, tình cảm gđ" style="text;html=1;align=center;verticalAlign=middle;whiteSpace=wrap;rounded=0;fillColor=#dae8fc;strokeColor=#6c8ebf;fontSize=18;" vertex="1" parent="1">
          <mxGeometry x="640" y="970" width="290" height="90" as="geometry" />
        </mxCell>
      </root>
    </mxGraphModel>
  </diagram>
</mxfile>
